<svg id="Layer_1" data-name="Layer 1" xmlns="http://www.w3.org/2000/svg" xmlns:xlink="http://www.w3.org/1999/xlink" viewBox="0 0 496.6 496.6"><defs><style>.cls-1{fill:url(#radial-gradient);}.cls-2{fill:url(#linear-gradient);}.cls-3{fill:url(#linear-gradient-2);}.cls-4{fill:url(#linear-gradient-3);}.cls-5{fill:#c64527;}</style><radialGradient id="radial-gradient" cx="256.99" cy="109.22" r="350.83" gradientUnits="userSpaceOnUse"><stop offset="0.01" stop-color="#f16c23"/><stop offset="0.36" stop-color="#f06923"/><stop offset="0.59" stop-color="#ed6124"/><stop offset="0.78" stop-color="#e75225"/><stop offset="0.95" stop-color="#df3d26"/><stop offset="1" stop-color="#dc3527"/></radialGradient><linearGradient id="linear-gradient" x1="257.11" y1="438" x2="257.11" y2="392.7" gradientUnits="userSpaceOnUse"><stop offset="0" stop-color="#8b3c1e"/><stop offset="1" stop-color="#472416"/></linearGradient><linearGradient id="linear-gradient-2" x1="353.94" y1="265.84" x2="353.94" y2="341.4" gradientUnits="userSpaceOnUse"><stop offset="0.01" stop-color="#3d476f"/><stop offset="1" stop-color="#252949"/></linearGradient><linearGradient id="linear-gradient-3" x1="158.56" y1="265.84" x2="158.56" y2="341.4" xlink:href="#linear-gradient-2"/></defs><path class="cls-1" d="M504.3,256c0,137.12-111.18,248.3-248.3,248.3S7.7,393.12,7.7,256,118.88,7.7,256,7.7,504.3,118.88,504.3,256Z" transform="translate(-7.7 -7.7)"/><path class="cls-2" d="M344.29,416.33c-11.34-7.55-41-23.63-87.18-23.63s-75.84,16.08-87.18,23.63A11.84,11.84,0,0,0,176.52,438H337.7a11.84,11.84,0,0,0,6.59-21.67Z" transform="translate(-7.7 -7.7)"/><path class="cls-3" d="M320,305.73c0-22.46,15.16-40.69,33.91-40.69s33.9,18.23,33.9,40.69-15.16,40.68-33.9,40.68S320,328.18,320,305.73Z" transform="translate(-7.7 -7.7)"/><path class="cls-4" d="M124.66,305.73c0-22.46,15.16-40.69,33.9-40.69s33.91,18.23,33.91,40.69-15.17,40.68-33.91,40.68-33.9-18.23-33.9-40.68Z" transform="translate(-7.7 -7.7)"/><path class="cls-5" d="M313.65,231.9c1.43,7.8,3.43,22.68,5.54,30,.21.86.77,1.81.05.68a12.05,12.05,0,0,0-2.57-2.65c-.3-.23-.84-.56-.7-.48l-.08-.08c-.17-.08-.3-.07-.15,0a4.09,4.09,0,0,0,1.43.41c19.94,1.5,40.23-5.58,60.34-9.65,12.6-2.87,25.21-6,38.85-7.64a7.31,7.31,0,0,1,3.62,14c-11.38,5.1-23.2,10.71-35.26,15.76-23.17,8.86-60.06,26.19-84.49,13.62a19.42,19.42,0,0,1-6.87-6.44c-7.9-14.71-7.86-29.43-8.6-45.32.3-17.85,25.95-19.69,28.89-2.22Z" transform="translate(-7.7 -7.7)"/><path class="cls-5" d="M227.17,234.12c-.73,15.9-.7,30.6-8.59,45.32a20.41,20.41,0,0,1-3.12,3.73c-14.17,11.67-35,6.66-50.49,2.66-25.68-7.18-49.35-18.65-73-29.33a7.31,7.31,0,0,1,3.61-14c13.65,1.63,26.25,4.77,38.85,7.64,20.4,4,41.11,11.66,61.31,9.42.28-.06.48-.13.46-.18.16,0,0,0-.14,0a16.33,16.33,0,0,0-1.75,1.37,11.77,11.77,0,0,0-1.61,1.84c-.72,1.13-.15.18.05-.68,2.12-7.36,4.15-22.4,5.57-30.2,3.19-17.45,28.65-15.21,28.86,2.4Z" transform="translate(-7.7 -7.7)"/></svg>