<svg xmlns="http://www.w3.org/2000/svg" xmlns:xlink="http://www.w3.org/1999/xlink" viewBox="0 0 496.6 496.6"><defs><style>.cls-1{isolation:isolate;}.cls-2{fill:url(#radial-gradient);}.cls-3{fill:url(#radial-gradient-2);}.cls-4{fill:#b72025;opacity:0.2;mix-blend-mode:multiply;}.cls-5{fill:url(#linear-gradient);}.cls-6{fill:url(#linear-gradient-2);}.cls-7{fill:#dd8126;}.cls-8{fill:url(#linear-gradient-3);}.cls-9{fill:url(#linear-gradient-4);}.cls-10{fill:url(#linear-gradient-5);}</style><radialGradient id="radial-gradient" cx="256" cy="256" r="248.3" gradientUnits="userSpaceOnUse"><stop offset="0.01" stop-color="#fdea73"/><stop offset="0.32" stop-color="#fde771"/><stop offset="0.52" stop-color="#fcdf6a"/><stop offset="0.69" stop-color="#fbd05e"/><stop offset="0.84" stop-color="#f9bb4c"/><stop offset="0.98" stop-color="#f6a036"/><stop offset="1" stop-color="#f69c33"/></radialGradient><radialGradient id="radial-gradient-2" cx="265.14" cy="293.48" r="236.59" gradientUnits="userSpaceOnUse"><stop offset="0" stop-color="#f06081"/><stop offset="0.18" stop-color="#ee5b7a"/><stop offset="0.44" stop-color="#e74e68"/><stop offset="0.74" stop-color="#dc3849"/><stop offset="1" stop-color="#d02029"/></radialGradient><linearGradient id="linear-gradient" x1="255.99" y1="185.12" x2="255.99" y2="207.43" gradientUnits="userSpaceOnUse"><stop offset="0" stop-color="#8b3c1e"/><stop offset="1" stop-color="#472416"/></linearGradient><linearGradient id="linear-gradient-2" x1="158.23" y1="93.44" x2="158.23" y2="164.43" gradientUnits="userSpaceOnUse"><stop offset="0.01" stop-color="#3d476f"/><stop offset="1" stop-color="#252949"/></linearGradient><linearGradient id="linear-gradient-3" x1="-4767.42" y1="93.44" x2="-4767.42" y2="164.43" gradientTransform="matrix(-1, 0, 0, 1, -4416, 0)" xlink:href="#linear-gradient-2"/><linearGradient id="linear-gradient-4" x1="135.07" y1="380" x2="40.81" y2="165.86" xlink:href="#radial-gradient"/><linearGradient id="linear-gradient-5" x1="255.06" y1="301.24" x2="504.3" y2="301.24" xlink:href="#radial-gradient"/></defs><g class="cls-1"><g id="Layer_1" data-name="Layer 1"><path class="cls-2" d="M504.3,256a246.93,246.93,0,0,1-41.49,137.41c-1.93,2.94-4,5.89-6.09,8.74A247.92,247.92,0,0,1,256,504.3c-108.72,0-201.11-69.89-234.73-167.21l0,0A248.34,248.34,0,1,1,504.3,256Z" transform="translate(-7.7 -7.7)"/><path class="cls-3" d="M344.67,383.94a257.94,257.94,0,0,1-34.92,45.5,248.22,248.22,0,0,1-42.11,35C212,501.21,159.07,504.3,159.07,504.3a486.22,486.22,0,0,1-56.95-67.14c-14.68-21.1-28-45-34.05-68.05a247.89,247.89,0,0,1-6.47-33.56c-7.44-61.63,13.72-110,75.44-114.66,66.89-5.07,83,66.5,83,66.5C279.18,225.14,401.18,291.06,344.67,383.94Z" transform="translate(-7.7 -7.7)"/><path class="cls-4" d="M309.75,429.44a248.22,248.22,0,0,1-42.11,35,46.35,46.35,0,0,1-22.89-27.33c-5.9-17.83,12.75-17.2,12.75-17.2Z" transform="translate(-7.7 -7.7)"/><path class="cls-5" d="M298.06,185.12H213.93a8.26,8.26,0,0,0-7.59,11.52,7.88,7.88,0,0,0,3.29,3.8c4.51,2.6,16.55,7,46.37,7s41.84-4.39,46.36-7a7.88,7.88,0,0,0,3.29-3.8A8.26,8.26,0,0,0,298.06,185.12Z" transform="translate(-7.7 -7.7)"/><path class="cls-6" d="M128.65,128.93c0-19.59,13.23-35.49,29.58-35.49s29.58,15.9,29.58,35.49-13.23,35.5-29.58,35.5-29.58-15.9-29.58-35.5Z" transform="translate(-7.7 -7.7)"/><path class="cls-7" d="M201.7,65.41C174.37,64,146.73,68.9,122,81.07c-4.83,2.23-9.22-4.25-5.42-7.91,22.44-22.89,57-32.67,88.4-26.8,11.81,3,8.78,20.11-3.25,19Z" transform="translate(-7.7 -7.7)"/><path class="cls-8" d="M381,128.93c0,19.6-13.23,35.5-29.58,35.5s-29.58-15.9-29.58-35.5,13.23-35.49,29.58-35.49S381,109.34,381,128.93Z" transform="translate(-7.7 -7.7)"/><path class="cls-7" d="M304.71,46.36c23.86-4.57,48.89.24,69.78,12.26A84.89,84.89,0,0,1,393.1,73.16a4.88,4.88,0,0,1-5.76,7.75C362.68,68.83,335.15,64,308,65.41c-12.12,1-15-16.16-3.25-19Z" transform="translate(-7.7 -7.7)"/><path class="cls-4" d="M219.09,377c-41.17,68.62-132,37.22-138.11,25.13a169.66,169.66,0,0,1-12.91-33.05,247.89,247.89,0,0,1-6.47-33.56l141.71,5.84S236.67,347.71,219.09,377Z" transform="translate(-7.7 -7.7)"/><path class="cls-9" d="M126.42,401.37C74.06,395.19,53.49,378,21.27,337.09l0,0A249,249,0,0,1,42,129.89c-1.93,37.92-2.56,79.55,1.79,101.24,3.48,17,5,40.71,49.41,48.92s71-8.21,80.56,0-28.4,29.32-15.55,30.67,44.82-3.67,51.48,24.73S187.8,408.62,126.42,401.37Z" transform="translate(-7.7 -7.7)"/><path class="cls-10" d="M504.3,256a246.93,246.93,0,0,1-41.49,137.41l-6.09,8.74c-49.51,50.79-97.53,55.15-136.53,58.2-52.55,4.1-59.94-24.25-64.19-40.72s6.2-37.06,29-38c15.13-.63,24.24-9.13,11.88-16s-15.55-21.49-7.29-22,54,15.12,91.95,0S447.4,256,447.4,256c16.67-33,25.7-89.16,29.08-114.27A247.12,247.12,0,0,1,504.3,256Z" transform="translate(-7.7 -7.7)"/></g></g></svg>