<svg width="20" height="20" viewBox="0 0 20 20" fill="none" xmlns="http://www.w3.org/2000/svg">
<path d="M18.7973 10.207C18.7973 9.55711 18.739 8.93219 18.6307 8.33228H9.99854V11.8818H14.9312C14.7146 13.0233 14.0646 13.9898 13.0898 14.6397V16.9478H16.0644C17.7975 15.348 18.7973 12.9983 18.7973 10.207Z" fill="#4285F4"/>
<path d="M9.99862 19.1639C12.4733 19.1639 14.548 18.3474 16.0645 16.9476L13.0899 14.6396C12.2733 15.1895 11.2318 15.5228 9.99862 15.5228C7.61562 15.5228 5.59089 13.9147 4.86599 11.7483H1.81641V14.1146C3.32453 17.1059 6.41578 19.1639 9.99862 19.1639Z" fill="#34A853"/>
<path d="M4.86579 11.7401C4.68248 11.1901 4.57416 10.6069 4.57416 9.99864C4.57416 9.39039 4.68248 8.80714 4.86579 8.25721V5.89087H1.81621C1.19129 7.12403 0.833008 8.51551 0.833008 9.99864C0.833008 11.4818 1.19129 12.8733 1.81621 14.1064L4.19088 12.2567L4.86579 11.7401Z" fill="#FBBC05"/>
<path d="M9.99862 4.48275C11.3484 4.48275 12.5483 4.94936 13.5065 5.84924L16.1311 3.22459C14.5397 1.74146 12.4733 0.833252 9.99862 0.833252C6.41578 0.833252 3.32453 2.89131 1.81641 5.8909L4.86599 8.25724C5.59089 6.09087 7.61562 4.48275 9.99862 4.48275Z" fill="#EA4335"/>
</svg>
