<svg id="Layer_1" data-name="Layer 1" xmlns="http://www.w3.org/2000/svg" xmlns:xlink="http://www.w3.org/1999/xlink" viewBox="0 0 496.6 496.6"><defs><style>.cls-1{fill:url(#radial-gradient);}.cls-2{fill:url(#linear-gradient);}.cls-3{fill:url(#linear-gradient-2);}.cls-4{fill:url(#linear-gradient-3);}</style><radialGradient id="radial-gradient" cx="256.99" cy="109.22" r="350.83" gradientUnits="userSpaceOnUse"><stop offset="0.01" stop-color="#fdea73"/><stop offset="0.32" stop-color="#fde771"/><stop offset="0.52" stop-color="#fcdf6a"/><stop offset="0.69" stop-color="#fbd05e"/><stop offset="0.84" stop-color="#f9bb4c"/><stop offset="0.98" stop-color="#f6a036"/><stop offset="1" stop-color="#f69c33"/></radialGradient><linearGradient id="linear-gradient" x1="256" y1="442.22" x2="256" y2="224.96" gradientUnits="userSpaceOnUse"><stop offset="0" stop-color="#8b3c1e"/><stop offset="1" stop-color="#472416"/></linearGradient><linearGradient id="linear-gradient-2" x1="256.12" y1="442.22" x2="256.12" y2="349.11" gradientUnits="userSpaceOnUse"><stop offset="0" stop-color="#d91e3a"/><stop offset="1" stop-color="#f05a75"/></linearGradient><linearGradient id="linear-gradient-3" x1="256.01" y1="193.93" x2="256.01" y2="100.79" gradientUnits="userSpaceOnUse"><stop offset="0.01" stop-color="#3d476f"/><stop offset="1" stop-color="#252949"/></linearGradient></defs><path class="cls-1" d="M504.3,256c0,137.12-111.18,248.3-248.3,248.3S7.7,393.12,7.7,256,118.88,7.7,256,7.7,504.3,118.88,504.3,256Z" transform="translate(-7.7 -7.7)"/><path class="cls-2" d="M100.81,256.25c0,62.54,31.29,186,155.19,186s155.19-123.43,155.19-186c0-5-49.94-31.29-155.19-31.29s-155.19,26.32-155.19,31.29Z" transform="translate(-7.7 -7.7)"/><path class="cls-3" d="M148.58,395.67c25,30.91,59.28,46.55,107.79,46.55s82.31-15.64,107.3-46.55c-17.1-18.31-49.6-46.56-107.3-46.56-57.85,0-90.56,28.25-107.79,46.56Z" transform="translate(-7.7 -7.7)"/><path class="cls-4" d="M200.6,136.35c8.13,5.81,15.52,14.06,12.6,24.49-2.17,7.88-5.93,11.39-13.1,11.39-24.11.34-53,8-77.71,19-2,1-6.18,2.79-10.31,2.67-3.88-.13-7.76-1.84-10.18-7.39-2.05-4.87-2.17-12,8.6-18.56,16.85-10.18,39-14.9,59.31-18.69a217.58,217.58,0,0,0-40.87-23.86c-13.23-6.06-11.77-14.19-10.06-18.69,4-9.81,18.9-6,33.46.87a281.2,281.2,0,0,1,48.26,28.74Zm110.92,0a275.68,275.68,0,0,1,48.14-28.74c14.56-6.92,29.46-10.68,33.46-.87,1.83,4.5,3.26,12.63-10.05,18.69a215.46,215.46,0,0,0-40.76,23.86c20.27,3.79,42.34,8.51,59.19,18.69,10.9,6.55,10.65,13.69,8.6,18.56-2.42,5.55-6.3,7.26-10.18,7.39-4.13.12-8.26-1.71-10.3-2.67-24.74-11-53.48-18.56-77.72-18.9-7-.13-10.93-3.64-13.1-11.52-2.79-10.3,4.59-18.68,12.72-24.49Z" transform="translate(-7.7 -7.7)"/></svg>