<svg id="Layer_1" data-name="Layer 1" xmlns="http://www.w3.org/2000/svg" xmlns:xlink="http://www.w3.org/1999/xlink" viewBox="0 0 496.6 496.6"><defs><style>.cls-1{fill:url(#linear-gradient);}.cls-2{fill:#fff;}</style><linearGradient id="linear-gradient" x1="256" y1="504.3" x2="256" y2="7.7" gradientTransform="translate(256 -106.04) rotate(45)" gradientUnits="userSpaceOnUse"><stop offset="0" stop-color="#3a67b1"/><stop offset="0.99" stop-color="#50b2e5"/></linearGradient></defs><circle class="cls-1" cx="256" cy="256" r="248.3" transform="translate(-113.74 248.3) rotate(-45)"/><rect class="cls-2" x="99.58" y="225.05" width="79.75" height="160.66" rx="25.37"/><path class="cls-2" d="M407.74,263.67A34.12,34.12,0,0,0,396.11,238a29.57,29.57,0,0,0-21-50.43H324.38V153.74c0-15.7-4.36-28.76-13-38.83a30.37,30.37,0,0,0-33.95-8.67,31.31,31.31,0,0,0-20.71,29.56v43.31c0,23.37-33.26,45.19-46.08,51.63-4.17,2.09-6.75,11.84-4.66,16v84.56l26.4,29.9a42,42,0,0,0,29.89,12.38h95.92a29.27,29.27,0,0,0,28.73-36.32,29.53,29.53,0,0,0,9.17-47.93A34.12,34.12,0,0,0,407.74,263.67Z" transform="translate(-7.7 -7.7)"/></svg>