<svg id="Layer_1" data-name="Layer 1" xmlns="http://www.w3.org/2000/svg" xmlns:xlink="http://www.w3.org/1999/xlink" viewBox="0 0 496.6 496.6"><defs><style>.cls-1{fill:url(#linear-gradient);}.cls-2{fill:#fff;}</style><linearGradient id="linear-gradient" x1="256.2" y1="504.74" x2="256.2" y2="8.14" gradientTransform="translate(256.37 -106.05) rotate(45)" gradientUnits="userSpaceOnUse"><stop offset="0" stop-color="#dd1e2f"/><stop offset="1" stop-color="#f15f7b"/></linearGradient></defs><circle class="cls-1" cx="256.2" cy="256.44" r="248.3" transform="translate(-114.19 248.13) rotate(-45)"/><path class="cls-2" d="M374.93,281.6c-73.23,85.52-110.46,110.7-112,111.67a11.17,11.17,0,0,1-6.69,2.07,11.76,11.76,0,0,1-6.81-2.07c-1.46-1-38.69-26.15-111.92-111.67-35.76-41.72-23.72-92,6.69-120.06,26.64-24.7,71.9-34.55,112-1.59,40.14-33,85.4-23.11,112,1.59C398.65,189.64,410.69,239.88,374.93,281.6Z" transform="translate(-7.9 -8.14)"/></svg>