<svg width="24" height="24" viewBox="0 0 24 24" fill="none" xmlns="http://www.w3.org/2000/svg">
<path opacity="0.4" d="M20.4 16.33C20.12 17.08 19.53 17.65 18.76 17.91C17.68 18.27 16.57 18.54 15.45 18.73C15.34 18.75 15.23 18.7701 15.12 18.7801C14.94 18.8101 14.76 18.83 14.58 18.85C14.36 18.8801 14.13 18.9 13.9 18.92C13.27 18.97 12.65 19 12.02 19C11.38 19 10.74 18.97 10.11 18.91C9.83996 18.89 9.57996 18.8601 9.31996 18.82C9.16996 18.8 9.01996 18.7801 8.87996 18.76C8.76996 18.74 8.65996 18.73 8.54996 18.71C7.43996 18.53 6.33996 18.26 5.26996 17.9C4.46996 17.63 3.85996 17.06 3.58996 16.33C3.31996 15.61 3.41996 14.77 3.84996 14.05L4.97996 12.17C5.21996 11.76 5.43996 10.97 5.43996 10.49V8.63005C5.43996 5.00005 8.38996 2.05005 12.02 2.05005C15.64 2.05005 18.59 5.00005 18.59 8.63005V10.49C18.59 10.97 18.81 11.76 19.06 12.17L20.19 14.05C20.6 14.75 20.68 15.57 20.4 16.33Z" fill="white"/>
<path d="M12 10.76C11.58 10.76 11.24 10.42 11.24 10V6.90001C11.24 6.48001 11.58 6.14001 12 6.14001C12.42 6.14001 12.76 6.48001 12.76 6.90001V10C12.75 10.42 12.41 10.76 12 10.76Z" fill="white"/>
<path d="M14.8301 20.01C14.4101 21.17 13.3001 22 12.0001 22C11.2101 22 10.4301 21.68 9.88005 21.11C9.56005 20.81 9.32005 20.41 9.18005 20C9.31005 20.02 9.44005 20.03 9.58005 20.05C9.81005 20.08 10.0501 20.11 10.2901 20.13C10.8601 20.18 11.4401 20.21 12.0201 20.21C12.5901 20.21 13.1601 20.18 13.7201 20.13C13.9301 20.11 14.1401 20.1 14.3401 20.07C14.5001 20.05 14.6601 20.03 14.8301 20.01Z" fill="white"/>
</svg>
