<svg width="24" height="24" viewBox="0 0 24 24" fill="none" xmlns="http://www.w3.org/2000/svg">
<path d="M21.09 6.98002C20.24 6.04002 18.82 5.57002 16.76 5.57002H16.52V5.53002C16.52 3.85002 16.52 1.77002 12.76 1.77002H11.24C7.48004 1.77002 7.48004 3.86002 7.48004 5.53002V5.58002H7.24004C5.17004 5.58002 3.76004 6.05002 2.91004 6.99002C1.92004 8.09002 1.95004 9.57002 2.05004 10.58L2.06004 10.65L2.16004 11.7C2.17004 11.71 2.19004 11.73 2.21004 11.74C2.54004 11.96 2.88004 12.18 3.24004 12.38C3.38004 12.47 3.53004 12.55 3.68004 12.63C5.39004 13.57 7.27004 14.2 9.18004 14.51C9.27004 15.45 9.68004 16.55 11.87 16.55C14.06 16.55 14.49 15.46 14.56 14.49C16.6 14.16 18.57 13.45 20.35 12.41C20.41 12.38 20.45 12.35 20.5 12.32C20.96 12.06 21.39 11.78 21.81 11.47C21.83 11.46 21.85 11.44 21.86 11.42L21.9 11.06L21.95 10.59C21.96 10.53 21.96 10.48 21.97 10.41C22.05 9.40002 22.03 8.02002 21.09 6.98002ZM13.09 13.83C13.09 14.89 13.09 15.05 11.86 15.05C10.63 15.05 10.63 14.86 10.63 13.84V12.58H13.09V13.83ZM8.91004 5.57002V5.53002C8.91004 3.83002 8.91004 3.20002 11.24 3.20002H12.76C15.09 3.20002 15.09 3.84002 15.09 5.53002V5.58002H8.91004V5.57002Z" fill="white"/>
<path opacity="0.4" d="M20.5 12.3C20.45 12.33 20.4 12.36 20.35 12.39C18.57 13.43 16.6 14.13 14.56 14.47C14.48 15.43 14.06 16.53 11.87 16.53C9.68003 16.53 9.26003 15.44 9.18003 14.49C7.27003 14.19 5.39003 13.56 3.68003 12.61C3.53003 12.53 3.38003 12.45 3.24003 12.36C2.88003 12.16 2.54003 11.94 2.21003 11.72C2.19003 11.71 2.17003 11.69 2.16003 11.68L2.77003 18.19C2.98003 20.18 3.80003 22.23 8.20003 22.23H15.82C20.22 22.23 21.04 20.18 21.25 18.18L21.88 11.4C21.87 11.42 21.85 11.44 21.83 11.45C21.4 11.76 20.96 12.05 20.5 12.3Z" fill="white"/>
</svg>
