<svg id="Layer_1" data-name="Layer 1" xmlns="http://www.w3.org/2000/svg" xmlns:xlink="http://www.w3.org/1999/xlink" viewBox="0 0 496.6 496.6"><defs><style>.cls-1{fill:url(#radial-gradient);}.cls-2{fill:url(#linear-gradient);}.cls-3{fill:url(#linear-gradient-2);}.cls-4{fill:url(#linear-gradient-3);}.cls-5{fill:#dd8126;}.cls-6{fill:url(#linear-gradient-4);}.cls-7{opacity:0.5;fill:url(#linear-gradient-5);}</style><radialGradient id="radial-gradient" cx="256.99" cy="109.22" r="350.83" gradientUnits="userSpaceOnUse"><stop offset="0.01" stop-color="#fdea73"/><stop offset="0.32" stop-color="#fde771"/><stop offset="0.52" stop-color="#fcdf6a"/><stop offset="0.69" stop-color="#fbd05e"/><stop offset="0.84" stop-color="#f9bb4c"/><stop offset="0.98" stop-color="#f6a036"/><stop offset="1" stop-color="#f69c33"/></radialGradient><linearGradient id="linear-gradient" x1="256" y1="411.19" x2="256" y2="349.11" gradientUnits="userSpaceOnUse"><stop offset="0" stop-color="#8b3c1e"/><stop offset="1" stop-color="#472416"/></linearGradient><linearGradient id="linear-gradient-2" x1="154.58" y1="318.07" x2="154.58" y2="235.39" gradientUnits="userSpaceOnUse"><stop offset="0.01" stop-color="#3d476f"/><stop offset="1" stop-color="#252949"/></linearGradient><linearGradient id="linear-gradient-3" x1="357.35" y1="318" x2="357.35" y2="235.39" xlink:href="#linear-gradient-2"/><linearGradient id="linear-gradient-4" x1="427.35" y1="504.3" x2="427.35" y2="342.48" gradientUnits="userSpaceOnUse"><stop offset="0.01" stop-color="#45c8f5"/><stop offset="1" stop-color="#327bbf"/></linearGradient><linearGradient id="linear-gradient-5" x1="427.35" y1="419.96" x2="427.35" y2="353.46" gradientUnits="userSpaceOnUse"><stop offset="0" stop-color="#fff"/><stop offset="1" stop-color="#327bbf"/></linearGradient></defs><path class="cls-1" d="M504.3,256c0,137.12-111.18,248.3-248.3,248.3S7.7,393.12,7.7,256,118.88,7.7,256,7.7,504.3,118.88,504.3,256Z" transform="translate(-7.7 -7.7)"/><path class="cls-2" d="M173.19,403.92c0,4.22,2.92,7.27,7.76,7.27,10.93,0,26-19.4,75.05-19.4s64.12,19.4,75.05,19.4c4.84,0,7.76-3.05,7.76-7.27,0-12.38-26.07-54.81-82.81-54.81s-82.81,42.43-82.81,54.81Z" transform="translate(-7.7 -7.7)"/><path class="cls-3" d="M119.37,280.86c0-25.23,15.86-45.47,35.26-45.47s35.17,20.24,35.17,45.47a55,55,0,0,1-7.39,27.87,15.35,15.35,0,0,1-9.34,6.92,70.66,70.66,0,0,1-18.44,2.42,71.62,71.62,0,0,1-18.53-2.42,14.7,14.7,0,0,1-9.22-6.92,53.85,53.85,0,0,1-7.51-27.87Z" transform="translate(-7.7 -7.7)"/><path class="cls-4" d="M322.2,280.86c0-25.23,15.77-45.47,35.17-45.47s35.13,20.24,35.13,45.47a54.61,54.61,0,0,1-7.39,27.87,14.89,14.89,0,0,1-9.34,6.92,73.21,73.21,0,0,1-36.84,0,15.35,15.35,0,0,1-9.34-6.92,53.64,53.64,0,0,1-7.39-27.87Z" transform="translate(-7.7 -7.7)"/><path class="cls-5" d="M347.73,172.91a120.81,120.81,0,0,1,77.88,38.9,87,87,0,0,1,15.76,24.77,7.35,7.35,0,0,1-3.8,9.68,7.5,7.5,0,0,1-8.18-1.53c-6.7-5.45-12.71-10.84-19.63-15.16-20.35-13.7-43.73-21.73-67.18-28.34-16.48-5.11-11.92-29.39,5.15-28.32Z" transform="translate(-7.7 -7.7)"/><path class="cls-5" d="M170.42,201.64c-31.24,8.44-61.17,21-85.42,43.09-5.75,5.63-15.19-.8-12-8.15,14.6-34.2,50-56.52,85.78-62.78a79.06,79.06,0,0,1,7.87-.89,14.48,14.48,0,0,1,15.49,13.38,14.67,14.67,0,0,1-11.74,15.35Z" transform="translate(-7.7 -7.7)"/><path class="cls-6" d="M427.35,342.48s-48,66.8-48,113.78a48,48,0,1,0,96.08,0C475.39,409.28,427.35,342.48,427.35,342.48Z" transform="translate(-7.7 -7.7)"/><path class="cls-7" d="M427.35,353.46s-19.74,27.45-19.74,46.75a19.74,19.74,0,1,0,39.48,0C447.09,380.91,427.35,353.46,427.35,353.46Z" transform="translate(-7.7 -7.7)"/></svg>