<svg id="Layer_1" data-name="Layer 1" xmlns="http://www.w3.org/2000/svg" xmlns:xlink="http://www.w3.org/1999/xlink" viewBox="0 0 496.6 496.6"><defs><style>.cls-1{fill:url(#radial-gradient);}.cls-2{fill:url(#linear-gradient);}.cls-3{fill:url(#linear-gradient-2);}.cls-4{fill:url(#linear-gradient-3);}.cls-5{fill:#dd8126;}</style><radialGradient id="radial-gradient" cx="256.99" cy="109.22" r="350.83" gradientUnits="userSpaceOnUse"><stop offset="0.01" stop-color="#fdea73"/><stop offset="0.32" stop-color="#fde771"/><stop offset="0.52" stop-color="#fcdf6a"/><stop offset="0.69" stop-color="#fbd05e"/><stop offset="0.84" stop-color="#f9bb4c"/><stop offset="0.98" stop-color="#f6a036"/><stop offset="1" stop-color="#f69c33"/></radialGradient><linearGradient id="linear-gradient" x1="256" y1="442.23" x2="256" y2="256" gradientUnits="userSpaceOnUse"><stop offset="0" stop-color="#8b3c1e"/><stop offset="1" stop-color="#472416"/></linearGradient><linearGradient id="linear-gradient-2" x1="155.13" y1="130.94" x2="155.13" y2="227.37" gradientUnits="userSpaceOnUse"><stop offset="0.01" stop-color="#3d476f"/><stop offset="1" stop-color="#252949"/></linearGradient><linearGradient id="linear-gradient-3" x1="356.87" y1="132.77" x2="356.87" y2="219.22" xlink:href="#linear-gradient-2"/></defs><path class="cls-1" d="M504.3,256c0,137.12-111.18,248.3-248.3,248.3S7.7,393.12,7.7,256,118.88,7.7,256,7.7,504.3,118.88,504.3,256Z" transform="translate(-7.7 -7.7)"/><path class="cls-2" d="M182.91,345.61c-5,57.32,22.53,96.62,73.09,96.62s78.09-39.3,73.09-96.62C324.25,288.37,294.55,256,256,256s-68.25,32.37-73.09,89.61Z" transform="translate(-7.7 -7.7)"/><path class="cls-3" d="M116.33,178.41c0-25.7,17.35-46.56,38.8-46.56s38.8,20.86,38.8,46.56S176.58,225,155.13,225s-38.8-20.85-38.8-46.55Z" transform="translate(-7.7 -7.7)"/><path class="cls-4" d="M318.07,178.41c0-25.7,17.35-46.56,38.8-46.56s38.8,20.86,38.8,46.56S378.32,225,356.87,225s-38.8-20.85-38.8-46.55Z" transform="translate(-7.7 -7.7)"/><path class="cls-5" d="M291.23,118.78c34.06-48.12,112.2-40.24,132.26,16.31,2.95,8.55-9.3,13.67-13.31,5.6-8.38-18-27.32-31.74-47.57-31.84A51.25,51.25,0,0,0,316,133.75c-10.25,16.1-34.28,1.65-24.81-15Z" transform="translate(-7.7 -7.7)"/><path class="cls-5" d="M220.4,118.78C186.35,70.66,108.2,78.54,88.14,135.09c-3,8.55,9.3,13.67,13.31,5.6,8.38-18,27.33-31.74,47.57-31.84,19.09-.91,37.23,8.87,46.57,24.9,10.25,16.1,34.28,1.65,24.81-15Z" transform="translate(-7.7 -7.7)"/></svg>