<svg width="24" height="24" viewBox="0 0 24 24" fill="none" xmlns="http://www.w3.org/2000/svg">
<path opacity="0.8" d="M12.9 2.52003L12.87 2.59003L9.96995 9.32003H7.11995C6.43995 9.32003 5.79995 9.45003 5.19995 9.71003L6.94995 5.53003L6.98995 5.44003L7.04995 5.28003C7.07995 5.21003 7.09995 5.15003 7.12995 5.10003C8.43995 2.07003 9.91995 1.38003 12.9 2.52003Z" fill="white"/>
<path d="M18.29 9.52002C17.84 9.39002 17.37 9.32002 16.88 9.32002H9.96997L12.87 2.59002L12.9 2.52002C13.04 2.57002 13.19 2.64002 13.34 2.69002L15.55 3.62002C16.78 4.13002 17.64 4.66002 18.17 5.30002C18.26 5.42002 18.34 5.53002 18.42 5.66002C18.51 5.80002 18.58 5.94002 18.62 6.09002C18.66 6.18002 18.69 6.26002 18.71 6.35002C18.97 7.20002 18.81 8.23002 18.29 9.52002Z" fill="white"/>
<path opacity="0.4" d="M21.76 14.2V16.15C21.76 16.35 21.75 16.55 21.74 16.74C21.55 20.24 19.6 22 15.9 22H8.09999C7.84999 22 7.61999 21.98 7.38999 21.95C4.20999 21.74 2.50999 20.04 2.28999 16.86C2.25999 16.62 2.23999 16.39 2.23999 16.15V14.2C2.23999 12.19 3.45999 10.46 5.19999 9.71001C5.79999 9.45001 6.43999 9.32001 7.11999 9.32001H16.88C17.37 9.32001 17.84 9.39001 18.29 9.52001C20.29 10.13 21.76 11.99 21.76 14.2Z" fill="white"/>
<path opacity="0.6" d="M6.94999 5.53003L5.19999 9.71003C3.45999 10.46 2.23999 12.19 2.23999 14.2V11.27C2.23999 8.43003 4.25999 6.06003 6.94999 5.53003Z" fill="white"/>
<path opacity="0.6" d="M21.76 11.27V14.2C21.76 11.99 20.29 10.13 18.29 9.52003C18.81 8.23003 18.97 7.20003 18.71 6.35003C18.69 6.26003 18.66 6.18003 18.62 6.09003C20.49 7.06003 21.76 9.03003 21.76 11.27Z" fill="white"/>
</svg>
